<svg width="40" height="40" viewBox="0 0 40 40" fill="none" xmlns="http://www.w3.org/2000/svg">
<g id="Frame" clip-path="url(#clip0_6702_157)">
<path id="Vector" d="M20 40C31.0457 40 40 31.0457 40 20C40 8.95431 31.0457 0 20 0C8.95431 0 0 8.95431 0 20C0 31.0457 8.95431 40 20 40Z" fill="#1E1928"/>
<path id="Vector_2" d="M23.9708 17.5778C23.6787 17.7048 23.3652 17.7921 23.0358 17.8302C23.3724 17.6317 23.6295 17.3174 23.7517 16.9436C23.431 17.1306 23.0811 17.262 22.7168 17.3326C22.5635 17.1719 22.3791 17.0441 22.1748 16.957C21.9706 16.87 21.7508 16.8255 21.5287 16.8262C20.6295 16.8262 19.9009 17.5445 19.9009 18.4293C19.9009 18.5548 19.9152 18.6769 19.9429 18.7945C19.298 18.7638 18.6665 18.599 18.0888 18.3108C17.5109 18.0224 16.9996 17.6168 16.5874 17.1198C16.4426 17.3636 16.3664 17.6419 16.3668 17.9254C16.3668 18.4809 16.6548 18.973 17.0913 19.2595C16.8329 19.2514 16.5802 19.1827 16.3532 19.0588V19.0786C16.3557 19.4511 16.4872 19.8114 16.7254 20.0979C16.9636 20.3845 17.2937 20.5795 17.6596 20.65C17.4194 20.7135 17.1681 20.7228 16.9239 20.6769C17.0304 20.9975 17.234 21.2769 17.5065 21.4765C17.7789 21.676 18.1068 21.7858 18.4446 21.7905C17.8651 22.2369 17.1538 22.4782 16.4223 22.4762C16.2913 22.4762 16.162 22.4683 16.0342 22.454C16.7807 22.9265 17.6461 23.1767 18.5295 23.1754C21.5248 23.1754 23.162 20.7326 23.162 18.6135L23.1565 18.4055C23.4758 18.1811 23.7517 17.9007 23.9708 17.5778Z" fill="white"/>
<path id="Vector_3" d="M15.2393 13.6508C14.8183 13.6508 14.4145 13.818 14.1169 14.1157C13.8192 14.4134 13.6519 14.8171 13.6519 15.238V24.7619C13.6519 25.1829 13.8192 25.5866 14.1169 25.8843C14.4145 26.182 14.8183 26.3492 15.2393 26.3492H24.7631C25.184 26.3492 25.5877 26.182 25.8855 25.8843C26.1831 25.5866 26.3503 25.1829 26.3503 24.7619V15.238C26.3503 14.8171 26.1831 14.4134 25.8855 14.1157C25.5877 13.818 25.184 13.6508 24.7631 13.6508H15.2393ZM15.2393 12.0635H24.7631C25.605 12.0635 26.4125 12.398 27.0078 12.9933C27.6032 13.5886 27.9376 14.3961 27.9376 15.238V24.7619C27.9376 25.6039 27.6032 26.4113 27.0078 27.0067C26.4125 27.602 25.605 27.9365 24.7631 27.9365H15.2393C14.3973 27.9365 13.5898 27.602 12.9945 27.0067C12.3992 26.4113 12.0647 25.6039 12.0647 24.7619V15.238C12.0647 14.3961 12.3992 13.5886 12.9945 12.9933C13.5898 12.398 14.3973 12.0635 15.2393 12.0635Z" fill="white"/>
</g>
<defs>
<clipPath id="clip0_6702_157">
<rect width="40" height="40" fill="white"/>
</clipPath>
</defs>
</svg>
