<svg width="40" height="40" viewBox="0 0 40 40" fill="none" xmlns="http://www.w3.org/2000/svg">
<g id="Frame" clip-path="url(#clip0_6702_151)">
<path id="Vector" d="M20 40C31.0457 40 40 31.0457 40 20C40 8.95431 31.0457 0 20 0C8.95431 0 0 8.95431 0 20C0 31.0457 8.95431 40 20 40Z" fill="#1E1928"/>
<path id="Vector_2" d="M24.5239 20.4384V23.4312H22.7892V20.6384C22.7892 19.9373 22.5381 19.4588 21.91 19.4588C21.4308 19.4588 21.145 19.781 21.0195 20.0935C20.9741 20.2052 20.962 20.3606 20.962 20.5161V23.4312H19.2264C19.2264 23.4312 19.2499 18.702 19.2264 18.2122H20.962V18.9513L20.9507 18.9683H20.962V18.9521C21.1928 18.5959 21.6039 18.0891 22.526 18.0891C23.6675 18.0891 24.5239 18.8355 24.5239 20.4384ZM17.4107 15.6953C16.8173 15.6953 16.4287 16.0855 16.4287 16.5971C16.4287 17.099 16.8059 17.4998 17.388 17.4998H17.3994C18.0049 17.4998 18.3813 17.0983 18.3813 16.5971C18.3699 16.0855 18.0049 15.6953 17.4107 15.6953ZM16.5315 23.4312H18.2671V18.2122H16.5315V23.4312Z" fill="white"/>
<path id="Vector_3" d="M15.619 13.0478C15.1895 13.0478 14.7777 13.2183 14.4741 13.5219C14.1705 13.8256 13.9999 14.2374 13.9999 14.6668V24.3811C13.9999 24.8104 14.1705 25.2222 14.4741 25.5259C14.7777 25.8296 15.1895 26.0001 15.619 26.0001H25.3332C25.7627 26.0001 26.1745 25.8296 26.4781 25.5259C26.7817 25.2222 26.9523 24.8104 26.9523 24.3811V14.6668C26.9523 14.2374 26.7817 13.8256 26.4781 13.5219C26.1745 13.2183 25.7627 13.0478 25.3332 13.0478H15.619ZM15.619 11.4287H25.3332C26.192 11.4287 27.0156 11.7699 27.623 12.3771C28.2302 12.9844 28.5713 13.808 28.5713 14.6668V24.3811C28.5713 25.2399 28.2302 26.0635 27.623 26.6707C27.0156 27.278 26.192 27.6192 25.3332 27.6192H15.619C14.7602 27.6192 13.9366 27.278 13.3292 26.6707C12.722 26.0635 12.3809 25.2399 12.3809 24.3811V14.6668C12.3809 13.808 12.722 12.9844 13.3292 12.3771C13.9366 11.7699 14.7602 11.4287 15.619 11.4287Z" fill="white"/>
</g>
<defs>
<clipPath id="clip0_6702_151">
<rect width="40" height="40" fill="white"/>
</clipPath>
</defs>
</svg>
