<svg width="40" height="40" viewBox="0 0 40 40" fill="none" xmlns="http://www.w3.org/2000/svg">
<g id="Frame" clip-path="url(#clip0_6702_146)">
<path id="Vector" d="M20 40C31.0457 40 40 31.0457 40 20C40 8.95431 31.0457 0 20 0C8.95431 0 0 8.95431 0 20C0 31.0457 8.95431 40 20 40Z" fill="#1E1928"/>
<path id="Vector_2" d="M20.0005 16.1847C17.8893 16.1847 16.1854 17.8886 16.1854 19.9999C16.1854 22.1111 17.8893 23.815 20.0005 23.815C22.1117 23.815 23.8155 22.1111 23.8155 19.9999C23.8155 17.8886 22.1117 16.1847 20.0005 16.1847ZM20.0005 22.4794C18.6352 22.4794 17.521 21.3652 17.521 19.9999C17.521 18.6345 18.6352 17.5203 20.0005 17.5203C21.3658 17.5203 22.48 18.6345 22.48 19.9999C22.48 21.3652 21.3658 22.4794 20.0005 22.4794ZM23.9718 15.1394C23.4789 15.1394 23.0809 15.5374 23.0809 16.0303C23.0809 16.5233 23.4789 16.9214 23.9718 16.9214C24.4648 16.9214 24.8629 16.5252 24.8629 16.0303C24.863 15.9133 24.84 15.7974 24.7954 15.6892C24.7506 15.5811 24.685 15.4828 24.6022 15.4001C24.5195 15.3172 24.4212 15.2516 24.313 15.2069C24.2048 15.1622 24.0889 15.1392 23.9718 15.1394ZM27.4373 19.9999C27.4373 18.9731 27.4466 17.9556 27.3889 16.9306C27.3313 15.7402 27.0596 14.6837 26.1891 13.8131C25.3167 12.9407 24.262 12.671 23.0715 12.6133C22.0448 12.5557 21.0273 12.565 20.0023 12.565C18.9755 12.565 17.9581 12.5557 16.9332 12.6133C15.7427 12.671 14.6861 12.9425 13.8155 13.8131C12.9432 14.6855 12.6735 15.7402 12.6158 16.9306C12.5581 17.9575 12.5675 18.9749 12.5675 19.9999C12.5675 21.0248 12.5581 22.0442 12.6158 23.0691C12.6735 24.2596 12.9451 25.3161 13.8155 26.1866C14.688 27.059 15.7427 27.3287 16.9332 27.3864C17.9599 27.4441 18.9775 27.4347 20.0023 27.4347C21.0292 27.4347 22.0466 27.4441 23.0715 27.3864C24.262 27.3287 25.3186 27.0572 26.1891 26.1866C27.0615 25.3143 27.3313 24.2596 27.3889 23.0691C27.4484 22.0442 27.4373 21.0266 27.4373 19.9999ZM25.8003 24.3861C25.6646 24.7245 25.5009 24.9776 25.2386 25.238C24.9763 25.5002 24.7252 25.664 24.3867 25.7997C23.4082 26.1885 21.085 26.1011 20.0005 26.1011C18.916 26.1011 16.5909 26.1885 15.6125 25.8016C15.2739 25.6658 15.021 25.5021 14.7605 25.2399C14.4982 24.9776 14.3346 24.7264 14.1988 24.3879C13.8118 23.4076 13.8993 21.0843 13.8993 19.9999C13.8993 18.9154 13.8118 16.5903 14.1988 15.6119C14.3346 15.2733 14.4982 15.0203 14.7605 14.7599C15.0228 14.4995 15.2739 14.334 15.6125 14.1982C16.5909 13.8112 18.916 13.8986 20.0005 13.8986C21.085 13.8986 23.4101 13.8112 24.3885 14.1982C24.7271 14.334 24.98 14.4977 25.2404 14.7599C25.5027 15.0222 25.6664 15.2733 25.8022 15.6119C26.1891 16.5903 26.1016 18.9154 26.1016 19.9999C26.1016 21.0843 26.1891 23.4076 25.8003 24.3861Z" fill="white"/>
</g>
<defs>
<clipPath id="clip0_6702_146">
<rect width="40" height="40" fill="white"/>
</clipPath>
</defs>
</svg>
