<svg width="40" height="40" viewBox="0 0 40 40" fill="none" xmlns="http://www.w3.org/2000/svg">
<g id="Frame" clip-path="url(#clip0_6702_163)">
<path id="Vector" d="M20 40C31.0457 40 40 31.0457 40 20C40 8.95431 31.0457 0 20 0C8.95431 0 0 8.95431 0 20C0 31.0457 8.95431 40 20 40Z" fill="#1E1928"/>
<path id="Vector_2" d="M18.966 17.5686V18.6614H18.166V19.9972H18.966V23.9677H20.6105V19.9972H21.7136C21.7136 19.9972 21.8176 19.3567 21.8676 18.6558H20.6168V17.7432C20.6168 17.6058 20.7962 17.4225 20.9739 17.4225H21.8692V16.0312H20.651C18.9255 16.0312 18.966 17.3686 18.966 17.5686Z" fill="white"/>
<path id="Vector_3" d="M15.2395 13.6508C14.8186 13.6508 14.4148 13.818 14.1171 14.1157C13.8194 14.4134 13.6522 14.8171 13.6522 15.238V24.7619C13.6522 25.1829 13.8194 25.5866 14.1171 25.8843C14.4148 26.182 14.8186 26.3492 15.2395 26.3492H24.7633C25.1843 26.3492 25.588 26.182 25.8857 25.8843C26.1833 25.5866 26.3506 25.1829 26.3506 24.7619V15.238C26.3506 14.8171 26.1833 14.4134 25.8857 14.1157C25.588 13.818 25.1843 13.6508 24.7633 13.6508H15.2395ZM15.2395 12.0635H24.7633C25.6052 12.0635 26.4128 12.398 27.0081 12.9933C27.6034 13.5886 27.9379 14.3961 27.9379 15.238V24.7619C27.9379 25.6039 27.6034 26.4113 27.0081 27.0067C26.4128 27.602 25.6052 27.9365 24.7633 27.9365H15.2395C14.3975 27.9365 13.5901 27.602 12.9948 27.0067C12.3994 26.4113 12.0649 25.6039 12.0649 24.7619V15.238C12.0649 14.3961 12.3994 13.5886 12.9948 12.9933C13.5901 12.398 14.3975 12.0635 15.2395 12.0635Z" fill="white"/>
</g>
<defs>
<clipPath id="clip0_6702_163">
<rect width="40" height="40" fill="white"/>
</clipPath>
</defs>
</svg>
